<?xml version="1.0" standalone="no"?>
<!DOCTYPE svg PUBLIC "-//W3C//DTD SVG 20010904//EN"
 "http://www.w3.org/TR/2001/REC-SVG-20010904/DTD/svg10.dtd">
<svg version="1.0" xmlns="http://www.w3.org/2000/svg"
 width="512.000000pt" height="512.000000pt" viewBox="0 0 512.000000 512.000000"
 preserveAspectRatio="xMidYMid meet">
<metadata>
Created by potrace 1.14, written by Peter Selinger 2001-2017
</metadata>
<g transform="translate(0.000000,512.000000) scale(0.100000,-0.100000)"
fill="#000000" stroke="none">
<path d="M2182 5024 l-102 -96 -36 21 c-50 30 -56 26 -10 -5 l39 -27 -64 -61
c-213 -201 -319 -310 -323 -329 -3 -12 -7 -39 -10 -61 l-5 -38 72 68 c40 38
117 112 172 165 133 129 171 160 180 151 5 -4 5 -2 2 4 -4 6 5 22 18 34 24 23
26 23 60 7 19 -9 53 -28 75 -42 l40 -25 -23 -46 -22 -46 24 -19 c28 -23 35
-19 61 32 11 21 22 39 24 39 5 0 109 -59 144 -81 12 -7 22 -20 22 -28 0 -8
-43 -151 -95 -318 -52 -167 -95 -308 -95 -313 0 -6 9 -1 20 10 11 11 26 20 34
20 23 0 42 40 86 181 82 265 122 379 133 379 6 0 42 -19 79 -41 38 -23 71 -40
73 -37 3 2 -29 24 -70 47 -42 24 -77 47 -80 51 -3 4 2 27 9 51 8 24 33 105 56
179 48 159 50 163 81 171 24 7 24 7 2 8 -41 2 -26 31 27 53 28 11 49 23 47 25
-2 2 -20 -4 -40 -12 -34 -14 -41 -13 -38 8 0 4 -3 7 -7 7 -5 0 -23 -48 -41
-107 -18 -60 -44 -141 -57 -182 -14 -40 -36 -110 -49 -155 -64 -220 -168 -545
-183 -576 -10 -21 -26 -36 -39 -38 l-21 -3 19 63 c11 35 72 230 136 433 63
204 126 406 140 450 14 44 27 91 29 105 4 23 3 22 -11 -5 -8 -16 -14 -36 -15
-43 0 -21 -111 -366 -120 -376 -5 -5 -44 12 -89 38 l-81 48 20 39 c37 72 12
40 -32 -41 -34 -63 -47 -79 -63 -76 -11 2 -21 9 -23 17 -3 20 103 194 119 194
7 0 16 -11 20 -25 6 -22 7 -23 8 -4 1 12 -6 27 -14 34 -19 16 -37 2 -72 -57
l-25 -43 -47 27 c-26 16 -58 36 -72 46 l-24 18 64 60 c48 45 67 57 74 47 6
-10 8 -9 4 3 -3 10 11 32 39 60 44 43 47 43 46 4 -1 -17 0 -17 4 -2 3 9 10 14
16 10 6 -3 3 5 -8 19 -15 20 -24 24 -44 18 -28 -8 -100 -68 -100 -84 0 -5 14
3 30 19 17 16 30 26 30 23 0 -8 -169 -172 -182 -177 -6 -2 20 26 58 63 38 37
64 66 58 64 -15 -4 -264 -243 -264 -253 0 -5 12 2 28 15 15 14 -11 -15 -57
-62 -47 -48 -87 -85 -90 -83 -2 3 24 30 58 61 34 31 59 59 56 62 -7 8 -255
-239 -250 -248 3 -4 -5 -16 -17 -26 l-21 -19 6 40 c7 44 7 44 412 432 105 101
188 183 185 183 -3 0 -51 -43 -108 -96z m158 61 c-7 -8 -17 -15 -22 -15 -6 0
-5 7 2 15 7 8 17 15 22 15 6 0 5 -7 -2 -15z m-240 -229 c0 -3 -4 -8 -10 -11
-5 -3 -10 -1 -10 4 0 6 5 11 10 11 6 0 10 -2 10 -4z m-295 -286 c-33 -32 -64
-59 -70 -60 -5 0 17 27 50 60 33 33 64 60 70 60 5 0 -17 -27 -50 -60z"/>
<path d="M3907 5063 c-54 -71 -143 -207 -187 -288 -68 -126 -90 -244 -52 -278
32 -29 100 -22 183 20 174 87 398 382 423 558 l6 40 -13 -45 c-68 -228 -260
-471 -442 -556 -59 -28 -126 -31 -150 -7 -30 30 -16 116 36 224 46 95 179 301
227 351 14 15 23 30 20 34 -3 3 -26 -21 -51 -53z"/>
<path d="M4018 5043 c-115 -138 -201 -278 -214 -350 -5 -29 -3 -39 11 -50 11
-7 24 -13 30 -13 26 0 108 66 154 123 55 70 161 235 161 251 0 6 -10 -5 -21
-24 -142 -235 -269 -368 -315 -329 -21 18 -17 38 25 125 39 81 130 211 203
290 23 24 39 47 36 50 -3 3 -35 -30 -70 -73z"/>
<path d="M380 5106 c0 -4 36 -129 80 -278 44 -149 80 -275 80 -282 0 -6 -33
-20 -72 -30 -271 -69 -454 -119 -462 -127 -6 -5 21 0 60 10 38 11 159 43 269
71 110 29 205 55 211 59 8 4 -14 95 -72 290 -75 255 -94 311 -94 287z"/>
<path d="M1216 5088 c-19 -31 -623 -1057 -794 -1351 -71 -122 -75 -132 -99
-255 -44 -228 -50 -272 -39 -272 6 0 89 53 184 117 l173 117 460 769 c254 423
459 771 456 773 -2 2 -16 -18 -31 -46 -15 -27 -29 -50 -31 -50 -2 0 -47 29
-100 65 -52 36 -99 65 -104 65 -5 0 -25 7 -45 15 -36 15 -36 15 -21 45 18 35
12 40 -9 8z m94 -93 c76 -38 170 -105 170 -121 0 -6 -140 -245 -311 -530 -171
-285 -356 -596 -412 -691 -56 -94 -105 -172 -109 -172 -5 -1 -8 6 -8 14 0 19
-43 47 -66 43 -12 -2 -20 6 -26 30 -12 45 -44 58 -92 38 -34 -14 -40 -14 -62
0 -13 9 -24 17 -24 18 0 2 429 733 732 1247 l80 137 57 -26 c50 -23 78 -38
178 -98 26 -15 27 -15 8 1 -31 25 -146 92 -193 110 -41 17 -49 25 -35 38 9 10
36 0 113 -38z m-919 -1396 c16 -8 19 -16 14 -41 -5 -21 -4 -28 4 -24 6 4 11 3
11 -3 0 -5 -6 -11 -12 -14 -7 -2 -10 -8 -5 -12 11 -13 20 1 26 42 8 50 49 73
87 49 31 -21 32 -61 2 -94 l-23 -25 25 14 c13 8 30 20 38 27 31 28 75 1 70
-43 -2 -26 -19 -41 -111 -104 l-109 -73 -30 36 c-16 20 -36 36 -44 36 -18 0
-18 16 1 115 26 140 22 132 56 114z m-21 -269 c11 -11 20 -26 20 -33 0 -15
-40 -41 -48 -31 -4 4 -1 9 6 11 14 5 16 39 3 48 -5 3 -12 1 -15 -4 -4 -5 -2
-12 4 -16 6 -4 8 -11 4 -16 -3 -5 -9 -7 -14 -4 -5 3 -11 1 -14 -4 -4 -5 -2
-13 4 -16 11 -7 -5 -35 -19 -35 -6 0 9 89 18 118 3 9 34 -1 51 -18z"/>
<path d="M1150 4548 c-68 -117 -158 -271 -200 -343 -42 -71 -127 -218 -190
-325 -62 -107 -122 -210 -133 -229 -12 -19 -16 -31 -10 -28 7 4 26 33 44 65
18 31 47 82 65 112 160 269 554 953 551 956 -2 2 -59 -91 -127 -208z"/>
<path d="M990 4460 c-6 -11 -8 -20 -6 -20 3 0 10 9 16 20 6 11 8 20 6 20 -3 0
-10 -9 -16 -20z"/>
<path d="M948 4393 c-31 -47 -50 -83 -44 -83 2 0 13 15 24 33 11 19 27 46 37
60 9 15 15 27 12 27 -2 0 -15 -17 -29 -37z"/>
<path d="M880 4280 c-6 -11 -8 -20 -6 -20 3 0 10 9 16 20 6 11 8 20 6 20 -3 0
-10 -9 -16 -20z"/>
<path d="M830 4200 c-6 -11 -8 -20 -6 -20 3 0 10 9 16 20 6 11 8 20 6 20 -3 0
-10 -9 -16 -20z"/>
<path d="M706 3999 c-48 -78 -86 -143 -84 -144 2 -2 40 56 84 128 95 154 96
157 91 157 -2 0 -43 -63 -91 -141z"/>
<path d="M526 3474 c-3 -9 -12 -14 -21 -10 -16 6 -21 -9 -6 -18 10 -6 47 31
39 39 -3 3 -8 -2 -12 -11z"/>
<path d="M1532 5090 c9 -14 19 -40 23 -58 4 -18 9 -31 12 -29 9 9 -17 85 -34
98 -15 13 -15 12 -1 -11z"/>
<path d="M2676 4999 c-39 -126 -52 -177 -43 -169 9 8 88 272 83 277 -3 3 -20
-46 -40 -108z"/>
<path d="M2889 5093 c-8 -9 -36 -27 -64 -39 -27 -13 -44 -24 -37 -24 7 0 27 7
45 16 38 20 93 64 79 64 -5 0 -16 -7 -23 -17z"/>
<path d="M5090 4640 c-13 -8 -13 -10 2 -10 9 0 20 5 23 10 8 13 -5 13 -25 0z"/>
<path d="M4975 4603 c-38 -14 -167 -62 -285 -105 -242 -89 -492 -194 -780
-327 -193 -89 -240 -117 -240 -142 0 -8 7 -3 16 10 25 35 504 255 839 386 225
88 201 85 219 21 9 -31 30 -80 47 -110 l30 -55 -48 -22 c-162 -74 -470 -191
-807 -305 -164 -56 -193 -63 -219 -54 -31 10 -57 39 -69 75 -6 20 -6 19 -7 -1
-1 -32 35 -72 77 -84 34 -10 56 -4 307 84 433 152 523 187 850 331 72 31 150
66 174 76 24 11 41 22 39 25 -3 3 -56 -18 -118 -45 -61 -28 -115 -51 -119 -51
-8 0 -83 148 -95 187 -6 19 -2 25 19 33 14 5 28 10 29 10 2 0 9 -20 15 -44 6
-24 18 -49 27 -57 14 -12 14 -9 -1 26 -34 79 -34 80 37 104 94 31 165 60 148
60 -8 0 -46 -12 -85 -26z m-190 -135 c10 -29 31 -77 47 -105 26 -47 30 -73 10
-73 -13 0 -48 64 -77 138 -24 62 -26 75 -14 83 8 5 15 9 16 9 1 0 9 -24 18
-52z"/>
<path d="M3055 4441 c-13 -22 -81 -85 -150 -141 -69 -56 -136 -118 -150 -138
-29 -45 -41 -87 -26 -96 6 -4 9 -1 5 8 -15 38 51 116 197 234 73 59 122 109
145 148 9 16 16 17 40 9 15 -6 35 -23 44 -38 14 -26 13 -31 -11 -75 -26 -47
-64 -77 -204 -162 -32 -19 -69 -52 -83 -73 -23 -34 -24 -40 -11 -63 22 -42
122 -129 305 -265 184 -137 263 -216 313 -309 48 -91 42 -181 -15 -231 -104
-91 -260 -47 -294 82 -6 22 -8 56 -4 75 11 61 90 134 144 134 11 0 20 5 20 11
0 25 -117 131 -276 249 -94 71 -202 157 -240 192 -38 34 -60 52 -49 38 41 -51
105 -106 270 -230 149 -112 275 -222 275 -241 0 -3 -18 -11 -39 -18 -81 -24
-135 -124 -113 -208 15 -54 35 -83 81 -114 28 -19 48 -24 101 -24 57 0 73 4
107 28 84 58 100 159 42 267 -48 90 -137 176 -339 327 -172 129 -259 205 -279
242 -18 32 26 80 132 147 114 71 142 96 168 146 26 50 24 64 -10 99 -41 40
-65 37 -96 -10z"/>
<path d="M5068 4001 c-36 -14 -145 -109 -489 -427 -614 -566 -851 -788 -869
-809 -9 -11 -15 -38 -14 -71 0 -43 6 -62 30 -96 56 -81 160 -112 229 -70 27
17 169 149 953 885 116 110 212 202 212 205 0 7 -31 -20 -120 -104 -41 -39
-113 -107 -160 -151 -47 -43 -239 -225 -428 -402 -303 -286 -345 -321 -360
-310 -9 7 -51 45 -92 83 -68 64 -67 62 11 -16 83 -83 92 -98 63 -98 -19 0
-147 123 -188 181 l-35 48 202 188 c547 508 981 908 987 911 4 2 11 -9 14 -24
4 -17 18 -30 36 -37 25 -9 30 -17 30 -43 0 -20 8 -38 23 -50 22 -19 22 -19 5
2 -21 24 -23 67 -5 86 6 7 13 20 15 28 3 11 -2 10 -17 -4 -40 -36 -93 2 -76
54 4 14 22 24 51 32 24 7 44 16 44 20 0 10 4 11 -52 -11z m-1201 -1242 c33
-41 84 -92 112 -113 l52 -39 -28 -29 c-63 -67 -139 -77 -214 -29 -54 34 -83
87 -84 153 0 43 4 52 45 93 24 25 47 44 51 43 4 -2 33 -37 66 -79z"/>
<path d="M3915 2580 c-3 -5 -1 -10 4 -10 6 0 11 5 11 10 0 6 -2 10 -4 10 -3 0
-8 -4 -11 -10z"/>
<path d="M1759 3983 c-38 -33 -91 -140 -116 -234 -14 -54 -21 -68 -33 -63 -8
3 -58 17 -110 31 -173 45 -272 21 -278 -67 -5 -62 34 -132 128 -232 l79 -85
-35 -34 c-24 -23 -43 -33 -59 -31 -36 5 -68 -32 -60 -68 5 -21 0 -37 -16 -59
-30 -41 -49 -119 -37 -153 22 -62 133 -74 292 -33 53 14 98 25 100 25 2 0 10
-24 16 -52 20 -84 57 -175 87 -215 90 -118 196 -50 265 172 l32 102 75 -24
c47 -15 111 -26 166 -29 78 -5 94 -3 122 15 81 51 40 174 -105 316 -34 33 -62
65 -62 71 0 20 78 74 108 74 38 0 55 21 48 57 -4 20 3 45 24 87 48 95 36 152
-37 177 -50 16 -162 5 -257 -25 l-76 -24 -10 42 c-63 246 -154 341 -251 259z
m110 1 c48 -29 84 -99 121 -236 l18 -68 -94 -44 -94 -45 -87 40 c-48 22 -89
42 -91 44 -9 9 23 116 57 190 39 83 86 135 123 135 11 0 32 -7 47 -16z m-351
-284 c43 -12 83 -24 90 -29 9 -6 9 -28 0 -109 l-12 -103 -72 -54 c-39 -30 -75
-55 -80 -55 -19 0 -144 137 -178 194 -43 72 -47 122 -13 153 12 12 31 23 42
26 35 10 143 -2 223 -23z m824 20 c41 -12 68 -42 68 -76 0 -11 -14 -49 -31
-82 -24 -49 -35 -62 -53 -62 -30 0 -60 -33 -52 -57 4 -13 -6 -30 -34 -58 -46
-45 -51 -44 -141 28 l-56 45 -7 83 c-4 46 -9 94 -12 105 -5 19 2 24 60 44 112
37 196 47 258 30z m-603 -105 l63 -31 -97 -57 -98 -57 7 52 c17 142 17 139 40
132 11 -4 50 -21 85 -39z m274 23 c10 -42 20 -168 13 -168 -4 0 -26 13 -49 28
-23 16 -64 41 -90 56 -57 32 -55 35 48 79 74 32 72 32 78 5z m-83 -126 l95
-57 3 -117 3 -117 -43 -29 c-24 -16 -72 -45 -107 -66 l-63 -37 -47 27 c-25 14
-74 44 -108 66 l-63 40 0 98 c0 54 3 106 6 115 11 27 180 134 214 135 9 0 58
-26 110 -58z m383 -46 c-10 -13 -21 -22 -26 -19 -11 7 12 43 29 43 13 0 12 -4
-3 -24z m42 -25 c-4 -14 -15 -21 -31 -21 l-25 0 22 31 c23 33 46 27 34 -10z
m-765 -106 c0 -52 -4 -95 -9 -95 -5 0 -35 21 -66 46 -47 39 -54 49 -43 60 24
23 103 83 111 83 4 1 7 -42 7 -94z m554 29 l37 -31 -43 -35 c-24 -20 -56 -44
-72 -54 l-29 -18 6 63 c4 35 7 82 7 103 l0 40 28 -19 c16 -10 46 -32 66 -49z
m-626 -95 c74 -57 76 -60 87 -193 l7 -83 -84 -23 c-46 -12 -113 -25 -149 -28
-143 -10 -188 63 -113 183 23 35 31 41 55 37 42 -6 61 14 58 60 -3 30 3 44 26
68 16 16 33 30 37 30 5 0 39 -23 76 -51z m748 -19 c118 -121 162 -207 133
-258 -20 -37 -55 -52 -120 -52 -92 0 -267 51 -262 77 1 6 7 52 14 101 l11 91
72 55 c39 31 74 56 78 56 3 0 37 -31 74 -70z m-926 3 c-1 -10 -36 -53 -44 -53
-14 0 -4 40 12 49 21 12 32 14 32 4z m30 -36 c0 -28 -17 -47 -42 -47 -23 0
-23 5 3 41 25 35 39 37 39 6z m424 -138 c-9 -15 -156 -71 -164 -63 -5 5 -13
49 -16 97 l-7 88 95 -58 c53 -32 94 -61 92 -64z m232 94 c-2 -10 -8 -48 -12
-86 -3 -37 -11 -70 -16 -73 -5 -3 -44 11 -86 31 -59 28 -73 39 -62 46 8 5 47
29 85 53 77 49 99 55 91 29z m-116 -140 c47 -20 86 -38 88 -39 8 -5 -34 -136
-64 -201 -74 -156 -163 -164 -235 -21 -31 62 -73 207 -63 217 8 8 167 80 179
80 6 1 48 -16 95 -36z"/>
<path d="M1770 3370 c-28 -28 -27 -84 2 -104 34 -24 73 -20 97 10 27 35 26 59
-4 89 -29 30 -68 32 -95 5z m97 -27 c14 -20 14 -28 3 -49 -8 -13 -24 -27 -36
-30 -65 -16 -102 76 -41 103 30 13 55 5 74 -24z"/>
<path d="M4849 3673 c-79 -75 -268 -254 -419 -397 -290 -275 -409 -391 -351
-341 20 17 76 69 126 116 49 47 225 213 390 369 342 322 412 390 404 390 -3 0
-70 -62 -150 -137z"/>
<path d="M4899 3563 l-34 -38 38 34 c20 19 37 36 37 38 0 8 -8 0 -41 -34z"/>
<path d="M4810 3485 c-24 -25 -42 -45 -39 -45 3 0 25 20 49 45 24 25 42 45 39
45 -3 0 -25 -20 -49 -45z"/>
<path d="M4710 3395 c-24 -25 -42 -45 -39 -45 3 0 25 20 49 45 24 25 42 45 39
45 -3 0 -25 -20 -49 -45z"/>
<path d="M4610 3305 c-24 -25 -42 -45 -39 -45 3 0 25 20 49 45 24 25 42 45 39
45 -3 0 -25 -20 -49 -45z"/>
<path d="M4515 3218 l-40 -43 43 40 c39 36 47 45 39 45 -2 0 -21 -19 -42 -42z"/>
<path d="M4409 3123 l-34 -38 38 34 c20 19 37 36 37 38 0 8 -8 0 -41 -34z"/>
<path d="M351 2830 c-96 -23 -243 -97 -306 -154 -27 -25 -45 -45 -38 -46 6 0
15 5 18 11 4 6 25 24 48 40 l40 29 17 -37 c31 -69 33 -70 191 -47 53 7 86 -6
99 -41 16 -41 -6 -88 -79 -164 -71 -74 -98 -119 -88 -145 9 -23 65 -33 129
-23 49 8 65 7 100 -9 23 -10 62 -19 87 -20 25 -1 54 -2 63 -3 9 0 33 -17 53
-38 28 -29 35 -44 35 -76 0 -54 -22 -86 -144 -204 -115 -111 -126 -132 -126
-235 0 -50 -3 -58 -19 -58 -24 0 -37 17 -46 60 -12 59 -55 127 -99 157 -56 39
-65 52 -66 99 0 31 8 51 30 80 16 21 43 57 60 78 35 45 37 65 11 97 -15 19
-26 22 -70 20 -47 -2 -111 21 -111 40 0 26 -121 32 -136 7 -6 -9 29 -6 78 8
10 3 30 -9 52 -31 35 -35 54 -40 129 -35 37 2 57 -16 57 -50 0 -33 -46 -93
-63 -83 -7 3 -9 3 -5 -2 4 -4 -1 -19 -12 -33 -11 -13 -25 -42 -31 -64 -15 -58
2 -96 62 -138 56 -39 72 -65 103 -160 20 -61 23 -65 51 -65 l30 0 10 85 c6 47
16 95 23 106 6 12 50 57 98 100 123 112 154 155 154 215 0 37 -6 55 -26 78
-36 43 -55 52 -138 61 -39 4 -90 15 -113 24 -31 12 -49 13 -68 6 -38 -14 -98
-12 -120 4 -27 20 -12 48 73 138 77 81 92 105 92 142 0 71 -53 103 -140 86
-116 -23 -165 -4 -158 61 2 27 11 38 43 56 60 34 187 72 265 79 l70 7 0 -31
c0 -48 9 -61 59 -86 25 -13 69 -49 97 -79 61 -67 90 -77 159 -53 51 18 115 70
115 93 0 18 15 16 31 -3 11 -13 8 -26 -19 -80 -18 -35 -32 -75 -32 -87 0 -32
34 -61 100 -87 77 -30 97 -45 119 -88 10 -20 37 -58 60 -84 39 -44 41 -49 41
-112 l0 -66 -31 0 c-62 0 -107 -80 -124 -220 -9 -67 -17 -84 -62 -124 -85 -74
-184 -183 -189 -208 -8 -34 -73 -63 -188 -85 -202 -38 -426 20 -589 152 -72
59 -91 59 -30 0 133 -127 366 -198 572 -175 365 41 630 318 649 676 18 354
-225 665 -578 739 -95 20 -237 18 -329 -5z m381 -19 c96 -28 208 -88 208 -113
0 -30 -51 -72 -113 -91 -69 -22 -89 -15 -145 51 -23 28 -66 63 -95 79 -48 26
-52 31 -55 67 l-3 39 68 -6 c37 -4 98 -15 135 -26z m336 -208 c84 -98 146
-218 166 -322 6 -34 6 -34 -14 -16 -12 11 -37 45 -56 76 -35 58 -40 61 -156
112 -75 33 -81 54 -40 142 17 36 35 65 40 65 6 0 32 -26 60 -57z m175 -540 c2
-5 -2 -39 -10 -78 -25 -121 -113 -272 -211 -360 -50 -44 -150 -115 -164 -115
-25 0 60 102 175 207 59 54 63 62 77 157 14 93 40 158 71 180 25 17 55 21 62
9z"/>
<path d="M2351 2444 c-5 -22 -12 -61 -15 -89 -4 -33 1 -22 13 35 19 86 21 125
2 54z"/>
<path d="M2041 2424 c0 -11 3 -14 6 -6 3 7 2 16 -1 19 -3 4 -6 -2 -5 -13z"/>
<path d="M2050 2396 c0 -22 24 -96 31 -96 4 0 1 21 -8 48 -16 47 -23 62 -23
48z"/>
<path d="M2588 2263 c-14 -21 -31 -49 -38 -63 -22 -44 14 -2 45 53 32 56 28
62 -7 10z"/>
<path d="M2080 2204 c-153 -41 -256 -153 -296 -320 -22 -91 -21 -272 1 -479
19 -173 25 -387 12 -448 -7 -33 -12 -38 -28 -34 -22 6 -59 -23 -59 -46 0 -8
11 -24 24 -37 22 -20 23 -24 10 -37 -7 -8 -14 -21 -14 -28 0 -18 28 -45 45
-45 8 0 20 -12 27 -27 20 -42 92 -75 148 -69 161 18 210 32 194 57 -3 5 11 16
30 26 19 9 38 23 41 30 7 20 -11 50 -35 58 -11 3 -20 14 -20 23 0 50 101 206
250 387 226 276 288 406 278 581 -6 109 -40 178 -132 269 -39 39 -94 82 -122
97 -105 56 -241 72 -354 42z m241 -10 c138 -41 258 -138 319 -260 33 -65 35
-74 34 -169 -1 -170 -43 -253 -275 -543 -157 -196 -219 -288 -241 -360 -13
-43 -13 -43 -53 -38 -35 5 -34 4 15 -12 69 -22 80 -29 80 -53 0 -23 -34 -38
-93 -41 -37 -1 -38 -2 -9 -5 23 -3 32 -9 32 -23 0 -24 -36 -35 -89 -26 -29 4
-40 2 -45 -9 -11 -30 -124 -12 -164 25 -33 31 -27 39 20 29 23 -6 48 -8 57 -6
9 2 -11 9 -44 16 -69 14 -125 36 -125 50 0 6 9 19 21 30 l21 19 -27 18 c-19
12 -25 24 -23 43 4 36 42 39 121 8 61 -24 127 -41 127 -32 0 2 -17 9 -39 15
l-38 10 49 198 c27 108 53 242 59 297 6 55 12 100 13 100 0 1 20 13 43 28 l42
27 17 -36 c9 -19 32 -46 50 -60 l32 -25 -45 -102 c-70 -158 -143 -361 -143
-397 0 -8 16 30 34 85 41 120 84 229 133 336 33 72 38 79 65 79 71 0 160 66
204 152 27 54 31 106 9 114 -49 19 -132 -53 -205 -175 -23 -39 -48 -71 -55
-71 -16 0 -64 55 -76 87 -7 19 -1 35 34 86 70 102 102 237 64 274 -16 16 -20
16 -45 3 -55 -31 -101 -189 -83 -287 9 -45 -3 -65 -56 -92 -31 -16 -33 -15
-33 24 0 74 -54 124 -80 76 -25 -48 -2 -113 45 -125 23 -6 25 -11 25 -60 0
-30 -7 -90 -15 -133 -26 -139 -90 -385 -101 -390 -5 -2 -27 3 -48 12 -29 12
-36 20 -31 33 18 44 16 227 -4 426 -35 351 -27 504 36 632 79 162 299 252 484
198z m-93 -370 c2 -24 -6 -66 -17 -99 -22 -61 -77 -155 -92 -155 -15 0 -10
142 6 197 19 65 51 105 79 101 17 -2 22 -11 24 -44z m240 -176 c5 -26 -41
-120 -76 -156 -37 -37 -102 -72 -137 -72 l-26 0 33 63 c44 83 147 190 179 185
13 -1 25 -11 27 -20z m-482 -73 c21 -50 19 -85 -5 -85 -39 0 -63 60 -41 101
16 28 29 23 46 -16z"/>
<path d="M1880 786 c0 -2 20 -11 45 -19 25 -9 45 -12 45 -8 0 4 -17 13 -39 19
-41 13 -51 14 -51 8z"/>
<path d="M78 1765 c21 -39 162 -158 162 -137 0 5 -11 17 -24 25 -13 9 -52 42
-87 74 -34 32 -57 49 -51 38z"/>
<path d="M9 1752 c13 -23 111 -106 118 -98 3 3 -14 22 -38 43 -23 21 -51 46
-61 56 -23 22 -31 22 -19 -1z"/>
<path d="M1207 1222 c-9 -10 -28 -43 -42 -74 l-26 -56 -52 14 c-77 20 -107 19
-107 -6 0 -26 26 -78 53 -107 l20 -22 -22 -66 c-25 -77 -26 -89 -7 -105 12 -9
25 -7 63 10 26 11 56 28 66 38 18 16 20 15 40 -13 31 -43 77 -85 93 -85 21 0
34 43 34 110 0 50 3 61 21 70 34 19 99 81 99 96 0 20 -19 27 -90 33 l-65 6 -6
51 c-9 69 -28 124 -43 124 -7 0 -20 -8 -29 -18z m52 -53 c6 -27 11 -65 11 -83
l0 -34 70 -4 c110 -6 114 -32 13 -96 l-43 -27 0 -66 c0 -41 -5 -72 -14 -85
-14 -18 -15 -18 -46 11 -17 17 -40 44 -51 62 l-20 31 -56 -34 c-74 -44 -93
-44 -92 -1 0 17 8 52 18 77 l19 45 -33 45 c-19 25 -37 58 -40 73 -9 33 5 35
84 11 29 -8 58 -13 65 -11 6 2 17 22 25 43 16 47 59 106 71 99 5 -3 13 -28 19
-56z"/>
<path d="M376 848 c-18 -28 -46 -162 -46 -218 0 -22 -5 -40 -11 -40 -6 0 -44
-14 -86 -31 -71 -30 -241 -145 -230 -156 3 -3 27 11 53 31 25 20 51 33 57 29
5 -3 7 -2 4 4 -8 13 50 46 65 37 6 -4 8 -3 5 3 -4 6 17 20 51 33 31 12 67 26
80 31 12 5 23 13 23 19 1 5 2 13 3 18 1 4 5 39 10 77 4 39 14 94 22 123 13 45
18 52 40 52 19 0 32 -12 56 -50 17 -28 33 -48 35 -46 6 5 -24 53 -51 84 -11
12 -30 22 -43 22 -12 0 -29 -10 -37 -22z"/>
<path d="M512 742 c46 -112 64 -142 84 -142 32 0 208 -46 251 -66 84 -39 152
-89 231 -171 l82 -86 78 11 c145 23 222 14 222 -25 0 -28 -160 -173 -190 -173
-5 0 -14 16 -20 35 -6 19 -16 35 -22 35 -5 0 -7 -6 -4 -12 2 -7 15 -43 26 -81
12 -37 24 -67 26 -67 2 0 2 17 -1 38 -5 37 -4 38 75 95 110 78 147 142 98 168
-21 11 -195 7 -258 -7 -21 -5 -33 5 -83 64 -113 136 -279 223 -490 257 -36 6
-41 11 -69 71 -16 35 -32 64 -35 64 -2 0 -3 -4 -1 -8z"/>
<path d="M335 500 c-13 -5 -14 -9 -5 -9 8 0 24 4 35 9 13 5 14 9 5 9 -8 0 -24
-4 -35 -9z"/>
<path d="M475 503 c-169 -20 -278 -70 -394 -180 -45 -43 -81 -85 -81 -93 0 -8
26 13 58 47 166 177 409 247 646 187 199 -51 364 -209 430 -411 10 -29 22 -53
27 -53 13 0 1 44 -32 119 -16 35 -26 68 -22 74 3 6 1 7 -5 3 -6 -4 -16 4 -23
16 -45 86 -187 197 -313 248 -62 24 -229 56 -256 48 -3 0 -18 -3 -35 -5z"/>
<path d="M225 469 c-4 -6 -4 -13 -1 -16 3 -4 6 -1 6 6 0 7 5 9 12 5 7 -4 8 -3
4 4 -9 15 -13 15 -21 1z"/>
<path d="M826 331 c-10 -16 5 -41 24 -41 19 0 30 17 23 38 -5 14 -39 16 -47 3z
m35 -16 c-1 -15 -24 -12 -29 3 -3 9 2 13 12 10 10 -1 17 -7 17 -13z"/>
<path d="M1190 211 c0 -5 7 -14 15 -21 16 -14 18 -10 9 14 -6 17 -24 22 -24 7z"/>
<path d="M537 115 c3 -44 9 -89 14 -100 8 -21 3 44 -11 130 -7 38 -7 31 -3
-30z"/>
<path d="M64 155 c-4 -9 -2 -21 4 -27 16 -16 47 -5 47 17 0 26 -42 34 -51 10z
m46 -4 c0 -14 -18 -23 -30 -16 -6 4 -8 11 -5 16 8 12 35 12 35 0z"/>
</g>
</svg>
